ply
format ascii 1.0
comment GEONAV-AI Phase 5 Local Sparse Point Cloud Map
element vertex 279
property float x
property float y
property float z
property uchar red
property uchar green
property uchar blue
end_header
11.4753 0.6534 1.3658 142 142 142
26.6451 2.8928 5.1369 121 121 121
14.5947 1.4096 3.1022 104 104 104
1.5064 0.7676 1.4545 58 58 58
17.3225 1.2315 3.5799 115 115 115
2.2461 0.6523 1.8683 236 236 236
6.4542 -2.7040 1.7536 52 52 52
-2.3117 3.9331 6.0758 194 194 194
-2.9882 5.7519 5.4304 72 72 72
-2.2992 5.7557 5.3922 36 36 36
-2.4264 5.7619 5.3938 148 148 148
-2.3381 5.7500 5.3455 55 55 55
-4.3131 4.8452 6.1817 115 115 115
-6.3816 3.9866 6.4950 96 96 96
-5.3016 4.4491 6.3678 108 108 108
-5.6148 4.3049 6.4517 96 96 96
-2.2831 5.8470 5.6169 89 89 89
-4.1178 5.1169 6.0108 179 179 179
-2.2309 5.8167 5.5408 35 35 35
-2.1757 5.8577 5.5644 58 58 58
-15.0161 0.2634 6.8671 27 27 27
-2.8977 5.6402 5.8430 50 50 50
-2.2603 6.0081 5.4348 166 166 166
-2.8394 5.9375 5.7122 184 184 184
-3.0254 6.0388 5.5537 151 151 151
-2.8753 6.0736 5.5066 94 94 94
-4.3934 5.5440 5.7965 152 152 152
-11.6679 2.5349 5.3078 170 170 170
-16.0491 0.5527 5.1820 100 100 100
-22.2759 -2.1885 4.5333 142 142 142
-14.2097 1.3942 5.0685 127 127 127
-3.8403 5.9731 5.4515 180 180 180
-12.6515 2.2384 4.3533 193 193 193
-9.5221 3.5752 4.8082 61 61 61
-10.6830 3.1428 4.8284 217 217 217
-9.3345 3.7275 3.1067 68 68 68
-0.0004 5.4321 10.2252 130 130 130
-1.0759 7.0951 8.8950 94 94 94
-0.6240 6.6857 9.3638 97 97 97
4.9311 12.2693 16.2117 192 192 192
10.4720 11.7055 15.5096 69 69 69
10.1830 11.2320 15.6807 9 9 9
10.4021 11.8200 15.8525 36 36 36
3.0578 7.8559 17.4048 255 255 255
5.1297 10.7286 16.1302 140 140 140
5.4329 16.1330 17.8735 91 91 91
3.8763 13.0464 18.6151 214 214 214
5.0647 15.3896 18.0486 255 255 255
4.0352 13.3824 18.5577 243 243 243
2.9422 13.8146 18.4753 138 138 138
2.3361 17.6587 17.2613 255 255 255
20.7585 26.8326 14.7137 126 126 126
11.0707 17.4000 15.3731 57 57 57
8.1343 39.6761 21.6415 193 193 193
3.6441 17.5360 18.8000 211 211 211
6.3240 22.9678 17.2731 180 180 180
14.7356 39.9303 11.1959 235 235 235
4.6993 35.6916 21.6022 145 145 145
2.1343 14.9543 17.8174 255 255 255
5.1142 22.6903 16.1215 118 118 118
3.5727 19.0499 17.2114 255 255 255
11.9104 9.1752 15.6796 219 219 219
4.1520 5.8331 35.5150 173 173 173
4.5395 5.7013 39.8813 112 112 112
5.3555 6.6035 40.1980 201 201 201
4.7519 5.8634 39.9601 103 103 103
4.7585 5.9102 40.3009 255 255 255
4.6945 5.9868 40.2103 155 155 155
4.1318 6.0284 40.1776 177 177 177
4.7212 5.9537 40.2577 174 174 174
5.8128 5.7865 40.6213 90 90 90
4.1962 6.3888 43.8973 125 125 125
3.3742 7.5730 45.7635 194 194 194
3.8717 6.0685 44.4197 138 138 138
-2.2526 20.4773 44.0516 109 109 109
-1.9383 19.2451 43.4422 255 255 255
-3.2233 18.3791 42.8848 80 80 80
-1.2980 15.2666 43.0049 184 184 184
-2.5809 11.2739 44.9256 141 141 141
-4.2849 14.0051 46.5881 132 132 132
-4.6882 13.4536 45.7661 190 190 190
-4.2134 20.1407 46.0738 201 201 201
-3.5521 12.8969 45.5887 152 152 152
-2.7470 12.1791 45.2470 81 81 81
-4.0502 13.0181 45.4377 207 207 207
-3.2240 18.5325 45.0487 167 167 167
-4.6094 13.7328 46.5346 16 16 16
-3.0005 19.2254 45.1924 158 158 158
-2.3215 20.2045 44.7111 125 125 125
-2.1988 12.1847 45.1491 168 168 168
-0.9806 9.7738 43.8791 137 137 137
-4.2695 14.0877 46.3239 157 157 157
-6.9432 27.1876 50.8996 146 146 146
-3.9936 24.5404 46.2806 113 113 113
-3.0118 28.5543 50.3339 34 34 34
-4.0150 24.1438 45.7590 172 172 172
-4.3968 24.9707 47.2386 33 33 33
-4.2937 21.8151 46.2015 255 255 255
-9.3190 26.0390 47.3115 143 143 143
-2.5064 22.0757 43.8781 32 32 32
-7.1490 26.2013 50.5108 80 80 80
-11.7157 23.2293 49.9034 32 32 32
-1.7077 27.7409 51.3318 103 103 103
-4.0534 25.5986 45.9836 115 115 115
-12.8942 33.7324 48.3184 146 146 146
-9.9135 32.1244 54.3483 160 160 160
-7.9959 30.5026 51.3966 207 207 207
-9.9357 34.4438 55.1551 114 114 114
-12.9231 32.5644 52.5401 189 189 189
-8.8054 32.4924 52.8541 186 186 186
-8.2946 33.5504 52.1717 163 163 163
-2.9190 32.7125 54.1183 98 98 98
-22.5438 22.3519 54.6205 105 105 105
-22.7788 21.3098 53.6929 108 108 108
-6.9190 34.4713 50.0716 23 23 23
-13.2316 30.0789 45.8490 105 105 105
-4.1606 42.8569 59.6209 114 114 114
-5.7016 42.2676 58.7310 128 128 128
-11.3379 37.9677 55.6299 137 137 137
-16.4722 39.3824 56.7567 121 121 121
-26.5055 29.0352 58.9643 20 20 20
-26.3517 26.8307 57.2655 78 78 78
5.1104 5.5083 46.7947 182 182 182
5.4490 5.7263 46.5436 177 177 177
2.1621 6.4033 45.0741 209 209 209
-11.8937 21.5720 51.6572 220 220 220
-10.9396 21.0181 50.7412 206 206 206
1.0494 11.3021 53.9409 146 146 146
6.6448 7.7915 48.5647 73 73 73
6.4858 2.2694 51.9900 98 98 98
4.3975 5.1308 54.1448 103 103 103
5.2900 5.0884 52.7766 94 94 94
2.2802 5.2350 58.7212 122 122 122
2.2933 5.3257 58.7511 12 12 12
3.6799 5.4208 58.0525 236 236 236
5.2228 5.3417 56.6088 102 102 102
2.7715 4.0113 57.6478 182 182 182
1.9600 5.4534 62.9682 187 187 187
1.9663 5.4744 63.1077 169 169 169
1.9295 5.4658 63.1048 179 179 179
2.1418 5.3654 63.4702 70 70 70
2.9730 6.8493 66.0314 160 160 160
2.8483 6.8062 66.1616 93 93 93
2.9966 6.8433 66.0224 208 208 208
2.9754 6.8348 66.0567 168 168 168
2.2341 6.3163 65.2458 87 87 87
3.0584 6.9772 66.3150 227 227 227
2.2365 6.3277 65.2109 121 121 121
3.0327 6.9543 66.3444 96 96 96
3.7454 5.9172 68.1303 97 97 97
3.7347 5.8217 68.1944 255 255 255
3.7678 6.1123 67.9848 244 244 244
3.9094 6.0778 67.9779 122 122 122
3.8895 6.0273 67.9448 97 97 97
4.0568 5.9507 68.1578 238 238 238
2.8118 4.8391 71.3349 80 80 80
2.6784 4.8297 71.3112 128 128 128
3.0177 4.8517 71.3698 239 239 239
7.5585 8.6715 71.5902 133 133 133
2.9322 5.1984 75.2027 44 44 44
10.7668 23.3561 53.9342 111 111 111
3.4215 8.0467 72.6206 190 190 190
2.6733 5.5413 74.7969 71 71 71
3.3048 5.9619 79.5188 33 33 33
3.5120 6.4885 79.3819 63 63 63
3.0869 5.3343 79.6581 1 1 1
3.1149 5.3964 79.6515 228 228 228
2.3491 2.3274 88.8615 204 204 204
-0.1261 1.2527 88.4600 9 9 9
1.9915 2.2050 88.5137 174 174 174
0.7773 1.7044 87.8393 255 255 255
0.2637 1.3605 88.5032 255 255 255
0.6076 1.1117 88.0319 244 244 244
0.1791 1.6288 88.0722 127 127 127
0.7946 1.0021 88.1232 255 255 255
0.0981 0.8295 87.9880 109 109 109
0.9005 1.1265 88.4166 50 50 50
0.5040 1.9201 88.1143 33 33 33
0.7928 1.5020 88.5599 125 125 125
0.4602 1.1293 88.0204 184 184 184
0.5080 0.9463 88.0505 255 255 255
1.2642 1.8817 88.8178 50 50 50
2.3797 2.3258 88.9576 50 50 50
0.5302 0.8977 88.1121 69 69 69
2.0532 2.0912 88.6762 49 49 49
0.4882 0.9331 88.1631 104 104 104
1.1713 1.2856 88.5062 109 109 109
0.5652 1.3030 87.9605 132 132 132
0.5473 1.1934 87.9880 208 208 208
2.2042 2.3295 88.7332 19 19 19
2.3894 2.3444 88.9646 19 19 19
2.3571 2.3448 88.9624 17 17 17
0.6967 0.9468 88.1642 104 104 104
2.2798 2.3264 88.8980 11 11 11
0.6947 0.7272 88.2802 118 118 118
0.1608 0.2672 88.2554 88 88 88
2.4469 2.6413 89.4127 141 141 141
3.9803 1.6762 97.3704 112 112 112
4.4188 1.5455 96.9950 95 95 95
4.2177 1.8478 97.2285 255 255 255
4.0262 -0.2336 96.3935 171 171 171
4.2107 0.1822 97.0588 146 146 146
4.7843 -0.1038 96.4766 145 145 145
4.9399 -1.0802 95.6963 167 167 167
5.6156 -3.7395 93.0643 61 61 61
4.2624 -0.6296 95.5359 133 133 133
4.6439 -1.5027 95.1537 185 185 185
11.0234 -0.7404 98.3253 201 201 201
2.5692 2.8594 103.6380 65 65 65
2.1421 3.0559 105.1498 31 31 31
1.7744 2.9986 104.6502 19 19 19
1.8149 2.9294 104.6510 63 63 63
1.5026 3.3659 104.4655 116 116 116
2.5532 2.9341 104.7118 122 122 122
2.5495 2.9858 104.7330 198 198 198
2.4471 2.1623 102.2844 255 255 255
2.6519 3.1646 102.5184 161 161 161
5.1691 9.9280 71.5387 239 239 239
2.5535 2.7291 103.7337 77 77 77
2.5772 2.6795 103.6253 148 148 148
2.0524 2.4461 107.1150 255 255 255
2.4063 2.4366 107.1559 215 215 215
2.1075 2.5172 107.0714 64 64 64
3.1530 2.3490 104.8723 163 163 163
2.4138 2.3923 105.9903 173 173 173
3.4775 2.5379 104.6010 70 70 70
3.4334 2.5171 104.5227 14 14 14
2.7614 2.7917 104.6596 207 207 207
2.7652 2.6916 104.8858 156 156 156
2.1020 2.4736 106.4089 47 47 47
2.0312 2.5530 106.4797 1 1 1
1.7421 2.6392 107.1535 138 138 138
3.5878 2.5707 104.6721 34 34 34
2.8410 2.7725 104.6467 144 144 144
3.0427 2.3068 105.1095 117 117 117
1.9204 2.5021 106.7917 159 159 159
1.7813 2.6235 107.0661 106 106 106
4.7484 2.9919 102.5136 174 174 174
4.6760 3.0018 102.3113 205 205 205
2.9062 2.6580 105.0469 255 255 255
1.7490 3.0482 110.1269 1 1 1
1.0983 -2.8134 112.0562 75 75 75
1.6473 1.2055 111.7596 34 34 34
1.6441 1.0227 111.8416 47 47 47
0.4415 3.4688 117.8289 2 2 2
2.0504 3.8838 116.3279 11 11 11
-19.8761 -11.6410 112.2936 7 7 7
4.2156 6.9998 116.7642 52 52 52
3.5156 4.6423 117.5712 195 195 195
1.6181 3.6708 116.4486 125 125 125
1.7397 3.7857 116.3743 28 28 28
-2.1924 15.8462 123.6718 117 117 117
-1.0426 13.7872 122.3109 244 244 244
-0.9345 15.5607 122.3933 255 255 255
-0.8523 13.5476 122.4549 255 255 255
-0.2492 17.6303 123.1825 186 186 186
-1.2629 8.9700 117.9425 67 67 67
1.2716 9.2126 120.4548 194 194 194
2.1034 9.0236 121.7705 65 65 65
1.2237 9.2307 120.2399 150 150 150
1.1680 8.3183 124.7629 44 44 44
1.8135 9.1011 121.4447 69 69 69
4.7489 6.6403 116.0747 24 24 24
1.1439 9.2713 119.8461 171 171 171
1.3086 9.2042 120.3208 112 112 112
1.2006 8.9639 119.2222 255 255 255
0.3748 5.6663 119.0409 78 78 78
0.3967 6.5645 118.9175 255 255 255
0.1207 7.4514 118.7494 222 222 222
0.1446 7.9444 118.7636 131 131 131
7.3206 32.9931 137.6470 141 141 141
7.6717 34.2008 137.5244 191 191 191
-0.1105 29.1574 136.3349 117 117 117
-0.3922 31.9273 135.8882 109 109 109
20.0018 27.3560 130.2538 60 60 60
20.8674 25.8790 128.3883 255 255 255
32.0076 18.7749 144.9524 197 197 197
7.1249 5.2131 150.4692 192 192 192
6.0786 0.8650 150.1154 58 58 58
